%
M48
M72
T01C0.0130
T02C0.0400
%
T01
X3240Y1140
X3240Y2740
X2540Y5540
X3040Y6240
X2540Y6940
X3740Y9140
T02
X740Y740
X740Y1740
X740Y2740
X740Y3740
X740Y4740
X740Y5740
X740Y6740
X740Y7740
X740Y8740
X740Y9740
X5740Y9740
X5740Y8740
X5740Y7740
X5740Y6740
X5740Y5740
X5740Y4740
X5740Y3740
X5740Y2740
X5740Y1740
X5740Y740
M30
