G75*
%MOIN*%
%OFA0B0*%
%FSLAX24Y24*%
%IPPOS*%
%LPD*%
%AMOC8*
5,1,8,0,0,1.08239X$1,22.5*
%
%ADD10C,0.0030*%
%ADD11C,0.0080*%
%ADD12C,0.0050*%
%ADD13C,0.0040*%
D10*
X001634Y003535D02*
X001634Y003825D01*
X001731Y003728D01*
X001828Y003825D01*
X001828Y003535D01*
X001929Y003535D02*
X001929Y003825D01*
X001977Y003680D02*
X002123Y003535D01*
X002224Y003535D02*
X002417Y003535D01*
X002518Y003583D02*
X002712Y003777D01*
X002712Y003583D01*
X002663Y003535D01*
X002567Y003535D01*
X002518Y003583D01*
X002518Y003777D01*
X002567Y003825D01*
X002663Y003825D01*
X002712Y003777D01*
X002813Y003680D02*
X003007Y003680D01*
X003108Y003583D02*
X003108Y003535D01*
X003301Y003535D01*
X003402Y003583D02*
X003402Y003632D01*
X003451Y003680D01*
X003547Y003680D01*
X003596Y003632D01*
X003596Y003583D01*
X003547Y003535D01*
X003451Y003535D01*
X003402Y003583D01*
X003451Y003680D02*
X003402Y003728D01*
X003402Y003777D01*
X003451Y003825D01*
X003547Y003825D01*
X003596Y003777D01*
X003596Y003728D01*
X003547Y003680D01*
X003697Y003632D02*
X003794Y003535D01*
X003890Y003632D01*
X003890Y003825D01*
X003992Y003825D02*
X004185Y003825D01*
X004088Y003825D02*
X004088Y003535D01*
X004052Y003285D02*
X004052Y002995D01*
X004148Y002995D02*
X003955Y002995D01*
X003955Y003188D02*
X004052Y003285D01*
X004250Y003237D02*
X004250Y003043D01*
X004443Y003237D01*
X004443Y003043D01*
X004395Y002995D01*
X004298Y002995D01*
X004250Y003043D01*
X004250Y003237D02*
X004298Y003285D01*
X004395Y003285D01*
X004443Y003237D01*
X004544Y003285D02*
X004544Y002995D01*
X004544Y003092D02*
X004738Y003285D01*
X004726Y003535D02*
X004726Y003825D01*
X004581Y003680D01*
X004774Y003680D01*
X004480Y003680D02*
X004480Y003583D01*
X004431Y003535D01*
X004335Y003535D01*
X004286Y003583D01*
X004286Y003777D01*
X004335Y003825D01*
X004431Y003825D01*
X004480Y003777D01*
X004480Y003680D02*
X004383Y003680D01*
X004593Y003140D02*
X004738Y002995D01*
X004825Y001585D02*
X004825Y001392D01*
X004825Y001488D02*
X004535Y001488D01*
X004632Y001392D01*
X004777Y001293D02*
X004777Y001244D01*
X004825Y001244D01*
X004825Y001293D01*
X004777Y001293D01*
X004777Y001143D02*
X004825Y001095D01*
X004825Y000998D01*
X004777Y000950D01*
X004583Y001143D01*
X004777Y001143D01*
X004777Y000950D02*
X004583Y000950D01*
X004535Y000998D01*
X004535Y001095D01*
X004583Y001143D01*
X004583Y000848D02*
X004680Y000848D01*
X004728Y000800D01*
X004728Y000655D01*
X004728Y000752D02*
X004825Y000848D01*
X004825Y000655D02*
X004535Y000655D01*
X004535Y000800D01*
X004583Y000848D01*
X002958Y003535D02*
X002958Y003825D01*
X002813Y003680D01*
X003108Y003583D02*
X003301Y003777D01*
X003301Y003825D01*
X003108Y003825D01*
X003697Y003825D02*
X003697Y003632D01*
X002417Y003825D02*
X002224Y003825D01*
X002224Y003535D01*
X002224Y003680D02*
X002320Y003680D01*
X002123Y003825D02*
X001929Y003632D01*
X003955Y006795D02*
X004148Y006795D01*
X004250Y006843D02*
X004443Y007037D01*
X004443Y006843D01*
X004395Y006795D01*
X004298Y006795D01*
X004250Y006843D01*
X004250Y007037D01*
X004298Y007085D01*
X004395Y007085D01*
X004443Y007037D01*
X004544Y006940D02*
X004738Y006940D01*
X004689Y006795D02*
X004689Y007085D01*
X004544Y006940D01*
X004544Y007495D02*
X004544Y007785D01*
X004443Y007737D02*
X004250Y007543D01*
X004298Y007495D01*
X004395Y007495D01*
X004443Y007543D01*
X004443Y007737D01*
X004395Y007785D01*
X004298Y007785D01*
X004250Y007737D01*
X004250Y007543D01*
X004148Y007495D02*
X003955Y007495D01*
X004052Y007495D02*
X004052Y007785D01*
X003955Y007688D01*
X004052Y007085D02*
X004052Y006795D01*
X003955Y006988D02*
X004052Y007085D01*
X004544Y007592D02*
X004738Y007785D01*
X004593Y007640D02*
X004738Y007495D01*
X004695Y008495D02*
X004598Y008495D01*
X004550Y008543D01*
X004743Y008737D01*
X004743Y008543D01*
X004695Y008495D01*
X004550Y008543D02*
X004550Y008737D01*
X004598Y008785D01*
X004695Y008785D01*
X004743Y008737D01*
X004844Y008640D02*
X004989Y008640D01*
X005038Y008592D01*
X005038Y008543D01*
X004989Y008495D01*
X004893Y008495D01*
X004844Y008543D01*
X004844Y008640D01*
X004941Y008737D01*
X005038Y008785D01*
X004448Y008495D02*
X004255Y008495D01*
X004255Y008688D02*
X004352Y008785D01*
X004352Y008495D01*
X004332Y009955D02*
X004332Y010148D01*
X004236Y010245D01*
X004139Y010148D01*
X004139Y009955D01*
X004038Y010003D02*
X003989Y009955D01*
X003893Y009955D01*
X003844Y010003D01*
X003893Y010100D02*
X003844Y010148D01*
X003844Y010197D01*
X003893Y010245D01*
X003989Y010245D01*
X004038Y010197D01*
X003989Y010100D02*
X004038Y010052D01*
X004038Y010003D01*
X003989Y010100D02*
X003893Y010100D01*
X003743Y010100D02*
X003550Y010100D01*
X003448Y010197D02*
X003448Y010245D01*
X003448Y010197D02*
X003352Y010100D01*
X003352Y009955D01*
X003352Y010100D02*
X003255Y010197D01*
X003255Y010245D01*
X003154Y010197D02*
X003154Y010148D01*
X003105Y010100D01*
X002960Y010100D01*
X002859Y010100D02*
X002666Y010100D01*
X002565Y010003D02*
X002516Y009955D01*
X002419Y009955D01*
X002371Y010003D01*
X002371Y010197D01*
X002419Y010245D01*
X002516Y010245D01*
X002565Y010197D01*
X002270Y010197D02*
X002222Y010245D01*
X002125Y010245D01*
X002076Y010197D01*
X002076Y010003D01*
X002125Y009955D01*
X002222Y009955D01*
X002270Y010003D01*
X002960Y009955D02*
X003105Y009955D01*
X003154Y010003D01*
X003154Y010052D01*
X003105Y010100D01*
X003154Y010197D02*
X003105Y010245D01*
X002960Y010245D01*
X002960Y009955D01*
X004139Y010100D02*
X004332Y010100D01*
D11*
X004139Y006486D02*
X002341Y006486D01*
X002580Y006136D02*
X002582Y006162D01*
X002588Y006188D01*
X002597Y006212D01*
X002610Y006235D01*
X002626Y006256D01*
X002645Y006274D01*
X002666Y006290D01*
X002690Y006302D01*
X002714Y006310D01*
X002740Y006315D01*
X002767Y006316D01*
X002793Y006313D01*
X002818Y006306D01*
X002842Y006296D01*
X002865Y006282D01*
X002885Y006266D01*
X002902Y006246D01*
X002917Y006224D01*
X002928Y006200D01*
X002936Y006175D01*
X002940Y006149D01*
X002940Y006123D01*
X002936Y006097D01*
X002928Y006072D01*
X002917Y006048D01*
X002902Y006026D01*
X002885Y006006D01*
X002865Y005990D01*
X002842Y005976D01*
X002818Y005966D01*
X002793Y005959D01*
X002767Y005956D01*
X002740Y005957D01*
X002714Y005962D01*
X002690Y005970D01*
X002666Y005982D01*
X002645Y005998D01*
X002626Y006016D01*
X002610Y006037D01*
X002597Y006060D01*
X002588Y006084D01*
X002582Y006110D01*
X002580Y006136D01*
X002341Y003994D02*
X004139Y003994D01*
D12*
X003831Y002427D02*
X003634Y002427D01*
X003831Y002427D02*
X003831Y000853D01*
X003634Y000853D01*
X002886Y001640D02*
X002888Y001677D01*
X002894Y001714D01*
X002903Y001749D01*
X002917Y001784D01*
X002933Y001817D01*
X002954Y001848D01*
X002977Y001877D01*
X003003Y001903D01*
X003032Y001926D01*
X003063Y001947D01*
X003096Y001963D01*
X003131Y001977D01*
X003166Y001986D01*
X003203Y001992D01*
X003240Y001994D01*
X003277Y001992D01*
X003314Y001986D01*
X003349Y001977D01*
X003384Y001963D01*
X003417Y001947D01*
X003448Y001926D01*
X003477Y001903D01*
X003503Y001877D01*
X003526Y001848D01*
X003547Y001817D01*
X003563Y001784D01*
X003577Y001749D01*
X003586Y001714D01*
X003592Y001677D01*
X003594Y001640D01*
X003592Y001603D01*
X003586Y001566D01*
X003577Y001531D01*
X003563Y001496D01*
X003547Y001463D01*
X003526Y001432D01*
X003503Y001403D01*
X003477Y001377D01*
X003448Y001354D01*
X003417Y001333D01*
X003384Y001317D01*
X003349Y001303D01*
X003314Y001294D01*
X003277Y001288D01*
X003240Y001286D01*
X003203Y001288D01*
X003166Y001294D01*
X003131Y001303D01*
X003096Y001317D01*
X003063Y001333D01*
X003032Y001354D01*
X003003Y001377D01*
X002977Y001403D01*
X002954Y001432D01*
X002933Y001463D01*
X002917Y001496D01*
X002903Y001531D01*
X002894Y001566D01*
X002888Y001603D01*
X002886Y001640D01*
X002846Y000853D02*
X002649Y000853D01*
X002649Y002427D01*
X002846Y002427D01*
D13*
X002160Y000919D02*
X002160Y000739D01*
X002520Y000739D01*
X002400Y000739D02*
X002400Y000919D01*
X002340Y000979D01*
X002220Y000979D01*
X002160Y000919D01*
X002160Y001108D02*
X002520Y001108D01*
X002520Y001348D01*
X002460Y001476D02*
X002520Y001536D01*
X002520Y001656D01*
X002460Y001716D01*
X002400Y001716D01*
X002340Y001656D01*
X002340Y001536D01*
X002280Y001476D01*
X002220Y001476D01*
X002160Y001536D01*
X002160Y001656D01*
X002220Y001716D01*
X002160Y001844D02*
X002520Y001844D01*
X002520Y002084D01*
X002340Y001964D02*
X002340Y001844D01*
X002160Y001844D02*
X002160Y002084D01*
X002160Y002212D02*
X002160Y002453D01*
X002160Y002333D02*
X002520Y002333D01*
X002160Y001348D02*
X002160Y001108D01*
X002340Y001108D02*
X002340Y001228D01*
X002520Y000979D02*
X002400Y000859D01*
M02*
