G75*
%MOIN*%
%OFA0B0*%
%FSLAX24Y24*%
%IPPOS*%
%LPD*%
%AMOC8*
5,1,8,0,0,1.08239X$1,22.5*
%
%ADD10OC8,0.0600*%
%ADD11C,0.0270*%
%ADD12C,0.0100*%
%ADD13C,0.0080*%
D10*
X000740Y000740D03*
X000740Y001740D03*
X000740Y002740D03*
X000740Y003740D03*
X000740Y004740D03*
X000740Y005740D03*
X000740Y006740D03*
X000740Y007740D03*
X000740Y008740D03*
X000740Y009740D03*
X005740Y009740D03*
X005740Y008740D03*
X005740Y007740D03*
X005740Y006740D03*
X005740Y005740D03*
X005740Y004740D03*
X005740Y003740D03*
X005740Y002740D03*
X005740Y001740D03*
X005740Y000740D03*
D11*
X003240Y001140D03*
X003240Y002740D03*
X002540Y005540D03*
X003040Y006240D03*
X002540Y006940D03*
X003740Y009140D03*
D12*
X003040Y006240D02*
X003040Y004940D01*
X003240Y004740D01*
X003240Y002740D01*
D13*
X000440Y000260D02*
X000260Y000440D01*
X000260Y010040D01*
X000440Y010220D01*
X006040Y010220D01*
X006220Y010040D01*
X006220Y000440D01*
X006040Y000260D01*
X000440Y000260D01*
X000403Y000297D02*
X006077Y000297D01*
X005998Y000376D02*
X006156Y000376D01*
X006220Y000454D02*
X006076Y000454D01*
X006155Y000533D02*
X006220Y000533D01*
X006180Y000558D02*
X005922Y000300D01*
X005558Y000300D01*
X005300Y000558D01*
X005300Y000922D01*
X005558Y001180D01*
X005922Y001180D01*
X006180Y000922D01*
X006180Y000558D01*
X006180Y000611D02*
X006220Y000611D01*
X006220Y000690D02*
X006180Y000690D01*
X006180Y000768D02*
X006220Y000768D01*
X006220Y000847D02*
X006180Y000847D01*
X006177Y000925D02*
X006220Y000925D01*
X006220Y001004D02*
X006099Y001004D01*
X006020Y001082D02*
X006220Y001082D01*
X006220Y001161D02*
X005942Y001161D01*
X005922Y001300D02*
X006180Y001558D01*
X006180Y001922D01*
X005922Y002180D01*
X005558Y002180D01*
X005300Y001922D01*
X005300Y001558D01*
X005558Y001300D01*
X005922Y001300D01*
X005940Y001318D02*
X006220Y001318D01*
X006220Y001396D02*
X006018Y001396D01*
X006097Y001475D02*
X006220Y001475D01*
X006220Y001553D02*
X006175Y001553D01*
X006180Y001632D02*
X006220Y001632D01*
X006220Y001710D02*
X006180Y001710D01*
X006180Y001789D02*
X006220Y001789D01*
X006220Y001867D02*
X006180Y001867D01*
X006157Y001946D02*
X006220Y001946D01*
X006220Y002024D02*
X006078Y002024D01*
X006000Y002103D02*
X006220Y002103D01*
X006220Y002181D02*
X000260Y002181D01*
X000260Y002103D02*
X000480Y002103D01*
X000558Y002180D02*
X000300Y001922D01*
X000300Y001558D01*
X000558Y001300D01*
X000922Y001300D01*
X001180Y001558D01*
X001180Y001922D01*
X000922Y002180D01*
X000558Y002180D01*
X000558Y002300D02*
X000922Y002300D01*
X001180Y002558D01*
X001180Y002922D01*
X000922Y003180D01*
X000558Y003180D01*
X000300Y002922D01*
X000300Y002558D01*
X000558Y002300D01*
X000520Y002338D02*
X000260Y002338D01*
X000260Y002260D02*
X006220Y002260D01*
X006220Y002338D02*
X005960Y002338D01*
X005922Y002300D02*
X006180Y002558D01*
X006180Y002922D01*
X005922Y003180D01*
X005558Y003180D01*
X005300Y002922D01*
X005300Y002558D01*
X005558Y002300D01*
X005922Y002300D01*
X006039Y002417D02*
X006220Y002417D01*
X006220Y002495D02*
X006117Y002495D01*
X006180Y002574D02*
X006220Y002574D01*
X006220Y002652D02*
X006180Y002652D01*
X006180Y002731D02*
X006220Y002731D01*
X006220Y002809D02*
X006180Y002809D01*
X006180Y002888D02*
X006220Y002888D01*
X006220Y002966D02*
X006136Y002966D01*
X006058Y003045D02*
X006220Y003045D01*
X006220Y003123D02*
X005979Y003123D01*
X005922Y003300D02*
X006180Y003558D01*
X006180Y003922D01*
X005922Y004180D01*
X005558Y004180D01*
X005300Y003922D01*
X005300Y003558D01*
X005558Y003300D01*
X005922Y003300D01*
X005981Y003359D02*
X006220Y003359D01*
X006220Y003437D02*
X006059Y003437D01*
X006138Y003516D02*
X006220Y003516D01*
X006220Y003594D02*
X006180Y003594D01*
X006180Y003673D02*
X006220Y003673D01*
X006220Y003751D02*
X006180Y003751D01*
X006180Y003830D02*
X006220Y003830D01*
X006220Y003908D02*
X006180Y003908D01*
X006220Y003987D02*
X006116Y003987D01*
X006037Y004065D02*
X006220Y004065D01*
X006220Y004144D02*
X005959Y004144D01*
X005922Y004300D02*
X006180Y004558D01*
X006180Y004922D01*
X005922Y005180D01*
X005558Y005180D01*
X005300Y004922D01*
X005300Y004558D01*
X005558Y004300D01*
X005922Y004300D01*
X005923Y004301D02*
X006220Y004301D01*
X006220Y004379D02*
X006001Y004379D01*
X006080Y004458D02*
X006220Y004458D01*
X006220Y004536D02*
X006158Y004536D01*
X006180Y004615D02*
X006220Y004615D01*
X006220Y004693D02*
X006180Y004693D01*
X006180Y004772D02*
X006220Y004772D01*
X006220Y004850D02*
X006180Y004850D01*
X006174Y004929D02*
X006220Y004929D01*
X006220Y005007D02*
X006095Y005007D01*
X006017Y005086D02*
X006220Y005086D01*
X006220Y005164D02*
X005938Y005164D01*
X005922Y005300D02*
X006180Y005558D01*
X006180Y005922D01*
X005922Y006180D01*
X005558Y006180D01*
X005300Y005922D01*
X005300Y005558D01*
X005558Y005300D01*
X005922Y005300D01*
X005943Y005321D02*
X006220Y005321D01*
X006220Y005243D02*
X003230Y005243D01*
X003230Y005321D02*
X005537Y005321D01*
X005458Y005400D02*
X003230Y005400D01*
X003230Y005478D02*
X005380Y005478D01*
X005301Y005557D02*
X003230Y005557D01*
X003230Y005635D02*
X005300Y005635D01*
X005300Y005714D02*
X003230Y005714D01*
X003230Y005792D02*
X005300Y005792D01*
X005300Y005871D02*
X003230Y005871D01*
X003230Y005949D02*
X005327Y005949D01*
X005405Y006028D02*
X003230Y006028D01*
X003230Y006041D02*
X003273Y006084D01*
X003315Y006185D01*
X003315Y006295D01*
X003273Y006396D01*
X003196Y006473D01*
X003095Y006515D01*
X002985Y006515D01*
X002884Y006473D01*
X002807Y006396D01*
X002765Y006295D01*
X002765Y006185D01*
X002807Y006084D01*
X002850Y006041D01*
X002850Y004861D01*
X002961Y004750D01*
X003050Y004661D01*
X003050Y002939D01*
X003007Y002896D01*
X002965Y002795D01*
X002965Y002685D01*
X003007Y002584D01*
X003084Y002507D01*
X003185Y002465D01*
X003295Y002465D01*
X003396Y002507D01*
X003473Y002584D01*
X003515Y002685D01*
X003515Y002795D01*
X003473Y002896D01*
X003430Y002939D01*
X003430Y004819D01*
X003230Y005019D01*
X003230Y006041D01*
X003282Y006106D02*
X005484Y006106D01*
X005558Y006300D02*
X005922Y006300D01*
X006180Y006558D01*
X006180Y006922D01*
X005922Y007180D01*
X005558Y007180D01*
X005300Y006922D01*
X005300Y006558D01*
X005558Y006300D01*
X005516Y006342D02*
X003296Y006342D01*
X003315Y006263D02*
X006220Y006263D01*
X006220Y006185D02*
X003315Y006185D01*
X003249Y006420D02*
X005438Y006420D01*
X005359Y006499D02*
X003134Y006499D01*
X002946Y006499D02*
X001121Y006499D01*
X001180Y006558D02*
X000922Y006300D01*
X000558Y006300D01*
X000300Y006558D01*
X000300Y006922D01*
X000558Y007180D01*
X000922Y007180D01*
X001180Y006922D01*
X001180Y006558D01*
X001180Y006577D02*
X005300Y006577D01*
X005300Y006656D02*
X001180Y006656D01*
X001180Y006734D02*
X005300Y006734D01*
X005300Y006813D02*
X001180Y006813D01*
X001180Y006891D02*
X005300Y006891D01*
X005347Y006970D02*
X001133Y006970D01*
X001054Y007048D02*
X005426Y007048D01*
X005504Y007127D02*
X000976Y007127D01*
X000922Y007300D02*
X001180Y007558D01*
X001180Y007922D01*
X000922Y008180D01*
X000558Y008180D01*
X000300Y007922D01*
X000300Y007558D01*
X000558Y007300D01*
X000922Y007300D01*
X000984Y007362D02*
X005496Y007362D01*
X005558Y007300D02*
X005922Y007300D01*
X006180Y007558D01*
X006180Y007922D01*
X005922Y008180D01*
X005558Y008180D01*
X005300Y007922D01*
X005300Y007558D01*
X005558Y007300D01*
X005417Y007441D02*
X001063Y007441D01*
X001141Y007519D02*
X005339Y007519D01*
X005300Y007598D02*
X001180Y007598D01*
X001180Y007676D02*
X005300Y007676D01*
X005300Y007755D02*
X001180Y007755D01*
X001180Y007833D02*
X005300Y007833D01*
X005300Y007912D02*
X001180Y007912D01*
X001112Y007990D02*
X005368Y007990D01*
X005446Y008069D02*
X001034Y008069D01*
X000955Y008147D02*
X005525Y008147D01*
X005558Y008300D02*
X005922Y008300D01*
X006180Y008558D01*
X006180Y008922D01*
X005922Y009180D01*
X005558Y009180D01*
X005300Y008922D01*
X005300Y008558D01*
X005558Y008300D01*
X005554Y008304D02*
X000926Y008304D01*
X000922Y008300D02*
X001180Y008558D01*
X001180Y008700D01*
X000780Y008700D01*
X000780Y008780D01*
X001180Y008780D01*
X001180Y008922D01*
X000922Y009180D01*
X000780Y009180D01*
X000780Y008780D01*
X000700Y008780D01*
X000700Y009180D01*
X000558Y009180D01*
X000300Y008922D01*
X000300Y008780D01*
X000700Y008780D01*
X000700Y008700D01*
X000780Y008700D01*
X000780Y008300D01*
X000922Y008300D01*
X001005Y008383D02*
X005475Y008383D01*
X005397Y008461D02*
X001083Y008461D01*
X001162Y008540D02*
X005318Y008540D01*
X005300Y008618D02*
X001180Y008618D01*
X001180Y008697D02*
X005300Y008697D01*
X005300Y008775D02*
X000780Y008775D01*
X000780Y008697D02*
X000700Y008697D01*
X000700Y008700D02*
X000700Y008300D01*
X000558Y008300D01*
X000300Y008558D01*
X000300Y008700D01*
X000700Y008700D01*
X000700Y008775D02*
X000260Y008775D01*
X000260Y008697D02*
X000300Y008697D01*
X000300Y008618D02*
X000260Y008618D01*
X000260Y008540D02*
X000318Y008540D01*
X000260Y008461D02*
X000397Y008461D01*
X000475Y008383D02*
X000260Y008383D01*
X000260Y008304D02*
X000554Y008304D01*
X000700Y008304D02*
X000780Y008304D01*
X000780Y008383D02*
X000700Y008383D01*
X000700Y008461D02*
X000780Y008461D01*
X000780Y008540D02*
X000700Y008540D01*
X000700Y008618D02*
X000780Y008618D01*
X000780Y008854D02*
X000700Y008854D01*
X000700Y008932D02*
X000780Y008932D01*
X000780Y009011D02*
X000700Y009011D01*
X000700Y009089D02*
X000780Y009089D01*
X000780Y009168D02*
X000700Y009168D01*
X000545Y009168D02*
X000260Y009168D01*
X000260Y009246D02*
X006220Y009246D01*
X006220Y009168D02*
X005935Y009168D01*
X006013Y009089D02*
X006220Y009089D01*
X006220Y009011D02*
X006092Y009011D01*
X006170Y008932D02*
X006220Y008932D01*
X006220Y008854D02*
X006180Y008854D01*
X006180Y008775D02*
X006220Y008775D01*
X006220Y008697D02*
X006180Y008697D01*
X006180Y008618D02*
X006220Y008618D01*
X006220Y008540D02*
X006162Y008540D01*
X006220Y008461D02*
X006083Y008461D01*
X006005Y008383D02*
X006220Y008383D01*
X006220Y008304D02*
X005926Y008304D01*
X005955Y008147D02*
X006220Y008147D01*
X006220Y008069D02*
X006034Y008069D01*
X006112Y007990D02*
X006220Y007990D01*
X006220Y007912D02*
X006180Y007912D01*
X006180Y007833D02*
X006220Y007833D01*
X006220Y007755D02*
X006180Y007755D01*
X006180Y007676D02*
X006220Y007676D01*
X006220Y007598D02*
X006180Y007598D01*
X006141Y007519D02*
X006220Y007519D01*
X006220Y007441D02*
X006063Y007441D01*
X005984Y007362D02*
X006220Y007362D01*
X006220Y007284D02*
X000260Y007284D01*
X000260Y007362D02*
X000496Y007362D01*
X000417Y007441D02*
X000260Y007441D01*
X000260Y007519D02*
X000339Y007519D01*
X000300Y007598D02*
X000260Y007598D01*
X000260Y007676D02*
X000300Y007676D01*
X000300Y007755D02*
X000260Y007755D01*
X000260Y007833D02*
X000300Y007833D01*
X000300Y007912D02*
X000260Y007912D01*
X000260Y007990D02*
X000368Y007990D01*
X000446Y008069D02*
X000260Y008069D01*
X000260Y008147D02*
X000525Y008147D01*
X000260Y008226D02*
X006220Y008226D01*
X006220Y007205D02*
X000260Y007205D01*
X000260Y007127D02*
X000504Y007127D01*
X000426Y007048D02*
X000260Y007048D01*
X000260Y006970D02*
X000347Y006970D01*
X000300Y006891D02*
X000260Y006891D01*
X000260Y006813D02*
X000300Y006813D01*
X000300Y006734D02*
X000260Y006734D01*
X000260Y006656D02*
X000300Y006656D01*
X000300Y006577D02*
X000260Y006577D01*
X000260Y006499D02*
X000359Y006499D01*
X000438Y006420D02*
X000260Y006420D01*
X000260Y006342D02*
X000516Y006342D01*
X000558Y006180D02*
X000300Y005922D01*
X000300Y005558D01*
X000558Y005300D01*
X000922Y005300D01*
X001180Y005558D01*
X001180Y005922D01*
X000922Y006180D01*
X000558Y006180D01*
X000484Y006106D02*
X000260Y006106D01*
X000260Y006028D02*
X000405Y006028D01*
X000327Y005949D02*
X000260Y005949D01*
X000260Y005871D02*
X000300Y005871D01*
X000300Y005792D02*
X000260Y005792D01*
X000260Y005714D02*
X000300Y005714D01*
X000300Y005635D02*
X000260Y005635D01*
X000260Y005557D02*
X000301Y005557D01*
X000260Y005478D02*
X000380Y005478D01*
X000458Y005400D02*
X000260Y005400D01*
X000260Y005321D02*
X000537Y005321D01*
X000558Y005180D02*
X000300Y004922D01*
X000300Y004558D01*
X000558Y004300D01*
X000922Y004300D01*
X001180Y004558D01*
X001180Y004922D01*
X000922Y005180D01*
X000558Y005180D01*
X000542Y005164D02*
X000260Y005164D01*
X000260Y005086D02*
X000463Y005086D01*
X000385Y005007D02*
X000260Y005007D01*
X000260Y004929D02*
X000306Y004929D01*
X000300Y004850D02*
X000260Y004850D01*
X000260Y004772D02*
X000300Y004772D01*
X000300Y004693D02*
X000260Y004693D01*
X000260Y004615D02*
X000300Y004615D01*
X000322Y004536D02*
X000260Y004536D01*
X000260Y004458D02*
X000400Y004458D01*
X000479Y004379D02*
X000260Y004379D01*
X000260Y004301D02*
X000557Y004301D01*
X000558Y004180D02*
X000300Y003922D01*
X000300Y003558D01*
X000558Y003300D01*
X000922Y003300D01*
X001180Y003558D01*
X001180Y003922D01*
X000922Y004180D01*
X000558Y004180D01*
X000521Y004144D02*
X000260Y004144D01*
X000260Y004222D02*
X003050Y004222D01*
X003050Y004144D02*
X000959Y004144D01*
X001037Y004065D02*
X003050Y004065D01*
X003050Y003987D02*
X001116Y003987D01*
X001180Y003908D02*
X003050Y003908D01*
X003050Y003830D02*
X001180Y003830D01*
X001180Y003751D02*
X003050Y003751D01*
X003050Y003673D02*
X001180Y003673D01*
X001180Y003594D02*
X003050Y003594D01*
X003050Y003516D02*
X001138Y003516D01*
X001059Y003437D02*
X003050Y003437D01*
X003050Y003359D02*
X000981Y003359D01*
X000979Y003123D02*
X003050Y003123D01*
X003050Y003045D02*
X001058Y003045D01*
X001136Y002966D02*
X003050Y002966D01*
X003003Y002888D02*
X001180Y002888D01*
X001180Y002809D02*
X002971Y002809D01*
X002965Y002731D02*
X001180Y002731D01*
X001180Y002652D02*
X002979Y002652D01*
X003018Y002574D02*
X001180Y002574D01*
X001117Y002495D02*
X003113Y002495D01*
X003367Y002495D02*
X005363Y002495D01*
X005300Y002574D02*
X003462Y002574D01*
X003501Y002652D02*
X005300Y002652D01*
X005300Y002731D02*
X003515Y002731D01*
X003509Y002809D02*
X005300Y002809D01*
X005300Y002888D02*
X003477Y002888D01*
X003430Y002966D02*
X005344Y002966D01*
X005422Y003045D02*
X003430Y003045D01*
X003430Y003123D02*
X005501Y003123D01*
X005499Y003359D02*
X003430Y003359D01*
X003430Y003437D02*
X005421Y003437D01*
X005342Y003516D02*
X003430Y003516D01*
X003430Y003594D02*
X005300Y003594D01*
X005300Y003673D02*
X003430Y003673D01*
X003430Y003751D02*
X005300Y003751D01*
X005300Y003830D02*
X003430Y003830D01*
X003430Y003908D02*
X005300Y003908D01*
X005364Y003987D02*
X003430Y003987D01*
X003430Y004065D02*
X005443Y004065D01*
X005521Y004144D02*
X003430Y004144D01*
X003430Y004222D02*
X006220Y004222D01*
X006220Y003280D02*
X003430Y003280D01*
X003430Y003202D02*
X006220Y003202D01*
X005520Y002338D02*
X000960Y002338D01*
X001039Y002417D02*
X005441Y002417D01*
X005480Y002103D02*
X001000Y002103D01*
X001078Y002024D02*
X005402Y002024D01*
X005323Y001946D02*
X001157Y001946D01*
X001180Y001867D02*
X005300Y001867D01*
X005300Y001789D02*
X001180Y001789D01*
X001180Y001710D02*
X005300Y001710D01*
X005300Y001632D02*
X001180Y001632D01*
X001175Y001553D02*
X005305Y001553D01*
X005383Y001475D02*
X001097Y001475D01*
X001018Y001396D02*
X005462Y001396D01*
X005540Y001318D02*
X000940Y001318D01*
X000922Y001180D02*
X000558Y001180D01*
X000300Y000922D01*
X000300Y000558D01*
X000558Y000300D01*
X000922Y000300D01*
X001180Y000558D01*
X001180Y000922D01*
X000922Y001180D01*
X000942Y001161D02*
X005538Y001161D01*
X005460Y001082D02*
X001020Y001082D01*
X001099Y001004D02*
X005381Y001004D01*
X005303Y000925D02*
X001177Y000925D01*
X001180Y000847D02*
X005300Y000847D01*
X005300Y000768D02*
X001180Y000768D01*
X001180Y000690D02*
X005300Y000690D01*
X005300Y000611D02*
X001180Y000611D01*
X001155Y000533D02*
X005325Y000533D01*
X005404Y000454D02*
X001076Y000454D01*
X000998Y000376D02*
X005482Y000376D01*
X006220Y001239D02*
X000260Y001239D01*
X000260Y001161D02*
X000538Y001161D01*
X000460Y001082D02*
X000260Y001082D01*
X000260Y001004D02*
X000381Y001004D01*
X000303Y000925D02*
X000260Y000925D01*
X000260Y000847D02*
X000300Y000847D01*
X000300Y000768D02*
X000260Y000768D01*
X000260Y000690D02*
X000300Y000690D01*
X000300Y000611D02*
X000260Y000611D01*
X000260Y000533D02*
X000325Y000533D01*
X000260Y000454D02*
X000404Y000454D01*
X000482Y000376D02*
X000324Y000376D01*
X000260Y001318D02*
X000540Y001318D01*
X000462Y001396D02*
X000260Y001396D01*
X000260Y001475D02*
X000383Y001475D01*
X000305Y001553D02*
X000260Y001553D01*
X000260Y001632D02*
X000300Y001632D01*
X000300Y001710D02*
X000260Y001710D01*
X000260Y001789D02*
X000300Y001789D01*
X000300Y001867D02*
X000260Y001867D01*
X000260Y001946D02*
X000323Y001946D01*
X000260Y002024D02*
X000402Y002024D01*
X000441Y002417D02*
X000260Y002417D01*
X000260Y002495D02*
X000363Y002495D01*
X000300Y002574D02*
X000260Y002574D01*
X000260Y002652D02*
X000300Y002652D01*
X000300Y002731D02*
X000260Y002731D01*
X000260Y002809D02*
X000300Y002809D01*
X000300Y002888D02*
X000260Y002888D01*
X000260Y002966D02*
X000344Y002966D01*
X000422Y003045D02*
X000260Y003045D01*
X000260Y003123D02*
X000501Y003123D01*
X000499Y003359D02*
X000260Y003359D01*
X000260Y003437D02*
X000421Y003437D01*
X000342Y003516D02*
X000260Y003516D01*
X000260Y003594D02*
X000300Y003594D01*
X000300Y003673D02*
X000260Y003673D01*
X000260Y003751D02*
X000300Y003751D01*
X000300Y003830D02*
X000260Y003830D01*
X000260Y003908D02*
X000300Y003908D01*
X000260Y003987D02*
X000364Y003987D01*
X000443Y004065D02*
X000260Y004065D01*
X000260Y003280D02*
X003050Y003280D01*
X003050Y003202D02*
X000260Y003202D01*
X000923Y004301D02*
X003050Y004301D01*
X003050Y004379D02*
X001001Y004379D01*
X001080Y004458D02*
X003050Y004458D01*
X003050Y004536D02*
X001158Y004536D01*
X001180Y004615D02*
X003050Y004615D01*
X003018Y004693D02*
X001180Y004693D01*
X001180Y004772D02*
X002940Y004772D01*
X002861Y004850D02*
X001180Y004850D01*
X001174Y004929D02*
X002850Y004929D01*
X002850Y005007D02*
X001095Y005007D01*
X001017Y005086D02*
X002850Y005086D01*
X002850Y005164D02*
X000938Y005164D01*
X000943Y005321D02*
X002850Y005321D01*
X002850Y005243D02*
X000260Y005243D01*
X000260Y006185D02*
X002765Y006185D01*
X002765Y006263D02*
X000260Y006263D01*
X000964Y006342D02*
X002784Y006342D01*
X002831Y006420D02*
X001042Y006420D01*
X000996Y006106D02*
X002798Y006106D01*
X002850Y006028D02*
X001075Y006028D01*
X001153Y005949D02*
X002850Y005949D01*
X002850Y005871D02*
X001180Y005871D01*
X001180Y005792D02*
X002850Y005792D01*
X002850Y005714D02*
X001180Y005714D01*
X001180Y005635D02*
X002850Y005635D01*
X002850Y005557D02*
X001179Y005557D01*
X001100Y005478D02*
X002850Y005478D01*
X002850Y005400D02*
X001022Y005400D01*
X001180Y008854D02*
X005300Y008854D01*
X005310Y008932D02*
X001170Y008932D01*
X001092Y009011D02*
X005388Y009011D01*
X005467Y009089D02*
X001013Y009089D01*
X000935Y009168D02*
X005545Y009168D01*
X005558Y009300D02*
X005922Y009300D01*
X006180Y009558D01*
X006180Y009922D01*
X005922Y010180D01*
X005558Y010180D01*
X005300Y009922D01*
X005300Y009558D01*
X005558Y009300D01*
X005533Y009325D02*
X000947Y009325D01*
X000922Y009300D02*
X001180Y009558D01*
X001180Y009922D01*
X000922Y010180D01*
X000558Y010180D01*
X000300Y009922D01*
X000300Y009558D01*
X000558Y009300D01*
X000922Y009300D01*
X001025Y009403D02*
X005455Y009403D01*
X005376Y009482D02*
X001104Y009482D01*
X001180Y009560D02*
X005300Y009560D01*
X005300Y009639D02*
X001180Y009639D01*
X001180Y009717D02*
X005300Y009717D01*
X005300Y009796D02*
X001180Y009796D01*
X001180Y009874D02*
X005300Y009874D01*
X005330Y009953D02*
X001150Y009953D01*
X001071Y010031D02*
X005409Y010031D01*
X005487Y010110D02*
X000993Y010110D01*
X000487Y010110D02*
X000329Y010110D01*
X000260Y010031D02*
X000409Y010031D01*
X000330Y009953D02*
X000260Y009953D01*
X000260Y009874D02*
X000300Y009874D01*
X000300Y009796D02*
X000260Y009796D01*
X000260Y009717D02*
X000300Y009717D01*
X000300Y009639D02*
X000260Y009639D01*
X000260Y009560D02*
X000300Y009560D01*
X000260Y009482D02*
X000376Y009482D01*
X000455Y009403D02*
X000260Y009403D01*
X000260Y009325D02*
X000533Y009325D01*
X000467Y009089D02*
X000260Y009089D01*
X000260Y009011D02*
X000388Y009011D01*
X000310Y008932D02*
X000260Y008932D01*
X000260Y008854D02*
X000300Y008854D01*
X000408Y010188D02*
X006072Y010188D01*
X005993Y010110D02*
X006151Y010110D01*
X006220Y010031D02*
X006071Y010031D01*
X006150Y009953D02*
X006220Y009953D01*
X006220Y009874D02*
X006180Y009874D01*
X006180Y009796D02*
X006220Y009796D01*
X006220Y009717D02*
X006180Y009717D01*
X006180Y009639D02*
X006220Y009639D01*
X006220Y009560D02*
X006180Y009560D01*
X006220Y009482D02*
X006104Y009482D01*
X006025Y009403D02*
X006220Y009403D01*
X006220Y009325D02*
X005947Y009325D01*
X005976Y007127D02*
X006220Y007127D01*
X006220Y007048D02*
X006054Y007048D01*
X006133Y006970D02*
X006220Y006970D01*
X006220Y006891D02*
X006180Y006891D01*
X006180Y006813D02*
X006220Y006813D01*
X006220Y006734D02*
X006180Y006734D01*
X006180Y006656D02*
X006220Y006656D01*
X006220Y006577D02*
X006180Y006577D01*
X006220Y006499D02*
X006121Y006499D01*
X006042Y006420D02*
X006220Y006420D01*
X006220Y006342D02*
X005964Y006342D01*
X005996Y006106D02*
X006220Y006106D01*
X006220Y006028D02*
X006075Y006028D01*
X006153Y005949D02*
X006220Y005949D01*
X006220Y005871D02*
X006180Y005871D01*
X006180Y005792D02*
X006220Y005792D01*
X006220Y005714D02*
X006180Y005714D01*
X006180Y005635D02*
X006220Y005635D01*
X006220Y005557D02*
X006179Y005557D01*
X006220Y005478D02*
X006100Y005478D01*
X006022Y005400D02*
X006220Y005400D01*
X005542Y005164D02*
X003230Y005164D01*
X003230Y005086D02*
X005463Y005086D01*
X005385Y005007D02*
X003242Y005007D01*
X003320Y004929D02*
X005306Y004929D01*
X005300Y004850D02*
X003399Y004850D01*
X003430Y004772D02*
X005300Y004772D01*
X005300Y004693D02*
X003430Y004693D01*
X003430Y004615D02*
X005300Y004615D01*
X005322Y004536D02*
X003430Y004536D01*
X003430Y004458D02*
X005400Y004458D01*
X005479Y004379D02*
X003430Y004379D01*
X003430Y004301D02*
X005557Y004301D01*
M02*
